<svg version="1" xmlns="http://www.w3.org/2000/svg" width="2048" height="2048" viewBox="0 0 1536.000000 1536.000000"><path d="M0 768v768h1536V0H0v768zm1063.4-291.2c50.3 8.2 94.8 27 133.6 56.3 37.2 28.1 66.2 63.2 87 105.4 13.3 27.1 22.4 56 27.2 86.6 1.8 12.2 2.2 18.6 2.2 41.4.1 28.2-.5 35.3-5 58.6-8.2 42.6-27.1 85-53.8 120.2-46.7 61.7-113.6 101.5-191.7 113.9l-14.4 2.3h-561l-14.4-2.3c-50.2-8-95.1-26.8-134.1-56.3-52.8-39.9-90.8-96.6-107.5-160.1-4-15.4-7-32-8.5-46.7-1.3-13.3-1.3-42.9 0-56.2 5.4-54 25.8-106.1 58.4-149.2 50.4-66.7 126.4-108.6 210.1-116 2.2-.2 128.7-.3 281-.3l277 .1 13.9 2.3z"/><path d="M501 558.6c-53.1 4.9-96.8 25-133.1 61.3-32.7 32.7-52.6 72.1-59.6 118.1-2.3 15.6-2.3 44.4 0 60 7 46 26.9 85.4 59.6 118.1 32.7 32.7 72.1 52.6 118.1 59.6 15.6 2.3 44.4 2.3 60 0 46-7 85.4-26.9 118.1-59.6 27.3-27.4 45.4-58.8 54.9-95.5 4.7-18.1 6.4-31.9 6.4-52.6 0-20.7-1.7-34.5-6.4-52.6-9.5-36.7-27.6-68.1-54.9-95.5-32.5-32.5-72.4-52.7-117.1-59.4-10.5-1.5-37.6-2.7-46-1.9zm29.8 84.4c56.5 7.1 99.9 48.6 109.8 105 2.1 12.5 1.4 35.8-1.5 47.5-5.9 23.8-16.5 43.3-32.4 59.7-24 24.7-55.6 38-90.2 38-94.2 0-154.8-99.9-111.3-183.5 23.7-45.5 75.4-73 125.6-66.7zM1005 558.6c-53.1 4.9-96.8 25-133.1 61.3-27.3 27.4-45.4 58.8-54.9 95.5-4.7 18.1-6.4 31.9-6.4 52.6 0 20.7 1.7 34.5 6.4 52.6 9.5 36.7 27.6 68.1 54.9 95.5 32.7 32.7 72.1 52.6 118.1 59.6 15.6 2.3 44.4 2.3 60 0 46-7 85.4-26.9 118.1-59.6 27.3-27.4 45.4-58.8 54.9-95.5 4.7-18.1 6.4-31.9 6.4-52.6 0-20.7-1.7-34.5-6.4-52.6-9.5-36.7-27.6-68.1-54.9-95.5-32.5-32.5-72.4-52.7-117.1-59.4-10.5-1.5-37.6-2.7-46-1.9zm29.8 84.4c56.5 7.1 99.9 48.6 109.8 105 2.1 12.5 1.4 35.8-1.5 47.5-5.9 23.8-16.5 43.3-32.4 59.7-24 24.7-55.6 38-90.2 38-94.2 0-154.8-99.9-111.3-183.5 23.7-45.5 75.4-73 125.6-66.7z"/></svg>